# xmcd
# 
# Track frame offsets:
#     150
#     13440
#     32105
#     48953
#     69791
#     84123
#     103176
#     122099
#     122555
#     136486
#     153569
#     176622
# 
# Disc length: 2759
# 
# Revision: 0
# Processed by: cddbd v1.5.2PL0 Copyright (c) Steve Scherf et al.
# Submitted via: fre:ac v1.0.31
# 
DISCID=9b0ac50c
DTITLE=Dry the River - Shallow Bed (LP)
DYEAR=2013
DGENRE=Indie Folk
TTITLE0=Animal Skins
TTITLE1=New Ceremony
TTITLE2=Shield Your Eyes
TTITLE3=History Book
TTITLE4=The Chamber and the Valves
TTITLE5=Demons
TTITLE6=Bible Belt
TTITLE7=x
TTITLE8=No Rest
TTITLE9=Shaker Hymns
TTITLE10=Weights and Measures
TTITLE11=Lion's Den
EXTD=
EXTT0=
EXTT1=
EXTT2=
EXTT3=
EXTT4=
EXTT5=
EXTT6=
EXTT7=
EXTT8=
EXTT9=
EXTT10=
EXTT11=
PLAYORDER=
